<?xml version="1.0" standalone="no"?>
<!DOCTYPE svg PUBLIC "-//W3C//DTD SVG 20010904//EN"
 "http://www.w3.org/TR/2001/REC-SVG-20010904/DTD/svg10.dtd">
<svg version="1.0" xmlns="http://www.w3.org/2000/svg"
 width="564.000000pt" height="846.000000pt" viewBox="0 0 564.000000 846.000000"
 preserveAspectRatio="xMidYMid meet">

<g transform="translate(0.000000,846.000000) scale(0.100000,-0.100000)"
fill="#000000" stroke="none">
<path d="M0 7846 c0 -576 1 -614 18 -619 22 -7 71 -37 96 -59 11 -10 23 -19
28 -19 4 -1 11 -2 16 -3 8 -2 65 -38 72 -46 25 -30 203 -127 223 -122 5 2 6
-2 2 -8 -5 -8 8 -14 18 -9 5 4 88 -42 108 -59 11 -9 24 -18 29 -18 6 -1 16 -2
23 -3 6 -1 27 -15 45 -32 17 -16 32 -28 32 -25 0 2 21 -7 48 -21 26 -14 59
-32 74 -40 14 -7 28 -20 31 -28 3 -7 26 -23 51 -34 25 -11 46 -24 46 -30 0 -6
7 -8 15 -5 8 4 15 1 15 -5 0 -6 3 -11 8 -10 14 2 52 -13 52 -21 0 -8 65 -50
77 -49 3 0 9 -3 12 -8 3 -5 35 -24 71 -41 97 -47 200 -114 193 -125 -3 -6 -1
-7 5 -3 6 3 44 -15 84 -42 40 -27 95 -61 123 -77 27 -15 70 -41 95 -59 25 -17
54 -36 65 -42 11 -6 47 -26 80 -43 33 -18 69 -41 80 -50 11 -9 37 -26 58 -36
21 -11 52 -32 70 -47 17 -16 37 -28 43 -28 7 0 35 -16 64 -35 29 -19 55 -35
59 -35 3 0 28 -16 55 -35 27 -19 53 -35 58 -35 5 0 14 -4 21 -10 22 -18 147
-80 162 -80 8 0 19 -9 25 -21 7 -12 18 -18 26 -15 8 3 14 2 14 -3 0 -14 123
-92 138 -86 7 2 11 1 8 -4 -3 -5 19 -24 49 -42 30 -18 55 -36 55 -40 0 -6 37
-27 163 -92 20 -10 37 -23 37 -28 0 -5 13 -9 28 -9 20 0 39 -11 61 -35 18 -20
50 -43 71 -51 22 -9 40 -20 40 -24 0 -5 23 -19 50 -31 28 -12 50 -26 50 -31 0
-16 51 -29 66 -17 7 6 13 14 12 17 0 4 0 16 1 26 1 20 1 20 15 0 13 -16 18
-17 35 -7 17 11 21 10 26 -7 3 -10 16 -22 28 -25 12 -4 41 -15 65 -26 24 -11
51 -17 60 -15 9 3 64 8 122 11 58 2 143 7 190 10 47 3 167 7 268 8 l182 2 0
42 c0 23 3 48 6 56 4 11 -4 17 -26 22 -68 15 -131 121 -114 193 11 42 42 100
61 111 13 7 4 9 -33 4 -39 -4 -62 -1 -97 15 -42 19 -46 19 -50 4 -3 -10 -5 -6
-6 9 0 15 -8 32 -17 40 -38 32 -56 89 -52 170 3 67 7 83 33 121 46 64 102 91
200 96 75 3 83 2 125 -25 118 -77 121 -270 6 -371 l-37 -32 61 0 c34 0 74 -6
90 -15 69 -36 95 -146 52 -219 -27 -45 -27 -46 -1 -46 53 0 89 -50 89 -126 0
-37 3 -45 15 -40 8 3 86 8 173 11 262 9 623 25 690 31 l62 6 0 1594 0 1594
-2820 0 -2820 0 0 -614z m2985 125 c-3 -6 10 -8 34 -5 36 4 42 1 65 -29 14
-19 26 -39 26 -44 0 -6 7 -16 15 -23 25 -21 17 -30 -28 -30 -24 0 -49 -6 -56
-12 -8 -7 -11 -8 -8 -2 4 7 -14 16 -48 24 -59 14 -81 31 -69 52 6 11 5 11 -8
0 -13 -10 -17 -10 -22 3 -9 25 5 46 38 53 17 3 34 5 39 4 4 -1 7 3 7 8 0 6 5
10 11 10 5 0 8 -4 4 -9z m147 -20 c31 -16 41 -36 33 -62 -7 -21 -25 -26 -25
-6 0 7 -12 30 -26 51 -15 21 -22 37 -18 34 5 -2 21 -10 36 -17z m1191 -88 l0
-98 6 97 c3 53 9 99 12 102 11 11 38 -5 32 -20 -3 -8 0 -14 7 -14 6 0 8 -5 4
-12 -5 -8 -2 -9 9 -5 10 4 16 2 14 -6 -1 -7 4 -11 11 -9 7 1 12 -8 12 -24 0
-14 4 -23 9 -20 13 8 32 -76 34 -146 1 -32 3 -58 5 -58 1 0 7 10 12 23 6 14 9
16 9 6 1 -18 -41 -101 -70 -138 l-20 -25 6 33 c7 38 -8 61 -39 60 -21 0 -21 0
2 -9 31 -13 28 -22 -4 -10 -56 22 -123 8 -184 -39 -21 -17 -22 -21 -10 -37 13
-16 13 -17 0 -9 -17 10 -50 49 -66 78 -10 18 -5 25 48 59 32 21 67 52 76 68 9
16 20 30 25 30 4 0 7 15 8 33 0 26 2 28 8 12 5 -12 8 16 7 66 -1 48 -4 85 -8
82 -5 -2 -8 3 -8 12 0 11 5 15 15 12 8 -4 17 -2 21 4 13 21 17 -3 17 -98z
m-1832 -43 c24 -13 26 -45 3 -36 -14 5 -15 4 -4 -9 7 -9 10 -19 6 -23 -7 -6
-36 24 -57 61 -8 14 -6 17 11 17 12 0 30 -5 41 -10z m1859 -290 c0 -5 -4 -10
-10 -10 -5 0 -10 5 -10 10 0 6 5 10 10 10 6 0 10 -4 10 -10z m-85 -10 c-3 -5
-10 -10 -16 -10 -5 0 -9 5 -9 10 0 6 7 10 16 10 8 0 12 -4 9 -10z m-985 -315
c0 -2 -18 -9 -41 -15 -22 -6 -48 -14 -57 -17 -13 -5 -14 -3 -5 7 14 16 103 38
103 25z m963 -12 c-7 -2 -19 -2 -25 0 -7 3 -2 5 12 5 14 0 19 -2 13 -5z m-913
-29 c13 -34 7 -41 -41 -54 -69 -19 -157 5 -159 43 0 4 10 7 23 7 12 1 45 7 72
15 76 21 94 19 105 -11z m990 -39 c-18 -22 -40 -18 -40 5 0 25 43 46 48 23 2
-8 -2 -20 -8 -28z m206 0 c27 -14 59 -40 73 -60 24 -36 27 -55 23 -157 l-2
-57 -47 -6 c-27 -3 -58 -8 -70 -11 -20 -4 -23 0 -23 26 0 54 -30 93 -80 105
-67 16 -89 37 -90 82 0 22 61 83 94 92 50 15 69 13 122 -14z m-258 -20 c-2
-10 -7 -12 -17 -5 -13 7 -13 11 -1 25 15 18 24 8 18 -20z m-858 -106 c0 -6 -4
-7 -10 -4 -5 3 -10 11 -10 16 0 6 5 7 10 4 6 -3 10 -11 10 -16z m740 -135 c70
-21 93 -37 134 -93 73 -99 85 -241 30 -358 -40 -84 -126 -167 -194 -187 -163
-49 -309 14 -378 162 -23 48 -27 71 -27 143 0 78 3 91 38 162 45 90 94 136
182 166 73 25 143 26 215 5z m371 -117 c-10 -9 -11 -8 -5 6 3 10 9 15 12 12 3
-3 0 -11 -7 -18z m-124 -63 c-3 -3 -12 -4 -19 -1 -8 3 -5 6 6 6 11 1 17 -2 13
-5z m230 -94 c39 -23 73 -86 73 -135 0 -66 -44 -121 -77 -94 -9 8 -35 10 -78
6 -81 -8 -87 0 -83 121 l3 87 35 17 c46 23 87 23 127 -2z m-177 -132 c-1 -75
-2 -81 -15 -64 -8 11 -15 37 -15 57 0 37 14 89 25 89 3 0 5 -37 5 -82z m-2191
-54 c2 -2 -7 -4 -22 -4 -14 0 -29 5 -32 10 -6 10 42 4 54 -6z m136 -4 c4 -6
-11 -7 -42 -3 -63 8 -67 13 -10 13 25 0 49 -4 52 -10z m38 -53 c53 -18 82 -37
58 -37 -5 0 -12 4 -15 9 -3 4 -18 8 -33 7 -15 -1 -34 5 -42 12 -8 8 -29 12
-51 10 -27 -2 -36 0 -33 9 7 17 47 14 116 -10z m-138 -8 c5 -7 -8 -8 -41 -3
-64 9 -68 14 -11 14 25 0 49 -5 52 -11z m2360 -42 c-6 -22 -40 -46 -50 -35 -9
10 9 67 24 71 24 5 33 -7 26 -36z m-2165 -33 c0 -2 -7 -4 -15 -4 -8 0 -15 4
-15 10 0 5 7 7 15 4 8 -4 15 -8 15 -10z m2407 -19 c5 -15 -38 -16 -56 -2 -12
9 -13 9 -7 0 5 -9 1 -13 -13 -13 -24 0 -36 16 -19 24 21 8 91 2 95 -9z m40 9
c-3 -3 -12 -4 -19 -1 -8 3 -5 6 6 6 11 1 17 -2 13 -5z m-1177 -18 c0 -11 9
-14 38 -10 l37 4 -40 -15 c-22 -9 -50 -13 -62 -10 -22 5 -22 6 -6 25 20 24 33
26 33 6z m937 -6 c1 0 11 -16 23 -35 18 -29 21 -44 15 -80 -7 -52 -51 -113
-68 -96 -14 14 -67 14 -101 1 -36 -13 -68 28 -64 84 3 34 7 41 33 49 37 13 54
29 58 58 5 28 33 39 72 28 16 -5 31 -9 32 -9z m-514 -17 c-7 -2 -19 -2 -25 0
-7 3 -2 5 12 5 14 0 19 -2 13 -5z m-1698 -63 c3 -5 -1 -10 -9 -10 -9 0 -16 5
-16 10 0 6 4 10 9 10 6 0 13 -4 16 -10z m1725 -14 c0 -2 -11 -6 -25 -8 -14 -3
-25 -1 -25 3 0 5 11 9 25 9 14 0 25 -2 25 -4z m-1619 -53 c10 -3 19 -9 19 -14
0 -5 6 -9 14 -9 8 0 16 -7 19 -14 4 -11 1 -13 -11 -9 -37 15 -61 30 -55 36 3
4 -1 9 -9 12 -11 4 -14 13 -10 28 7 22 7 22 10 -2 2 -13 12 -26 23 -28z m1089
33 c-6 -8 -18 -12 -26 -9 -23 9 -16 23 12 23 22 0 24 -2 14 -14z m520 -5 c0
-5 -7 -11 -15 -15 -15 -5 -20 5 -8 17 9 10 23 9 23 -2z m-452 -58 c5 -18 -19
-16 -43 3 -19 15 -19 15 9 12 16 -2 31 -9 34 -15z m-940 -26 l34 2 -23 -20
c-24 -21 -34 -24 -24 -9 3 6 0 10 -7 10 -7 1 -26 7 -43 16 l-30 14 30 -7 c17
-4 45 -6 63 -6z m947 -7 c-3 -5 -13 -10 -21 -10 -8 0 -14 5 -14 10 0 6 9 10
21 10 11 0 17 -4 14 -10z m-997 -27 c-10 -2 -28 -2 -40 0 -13 2 -5 4 17 4 22
1 32 -1 23 -4z m1002 -14 c0 -5 -4 -9 -10 -9 -5 0 -10 7 -10 16 0 8 5 12 10 9
6 -3 10 -10 10 -16z m-880 -23 c0 -4 -8 -5 -17 -1 -10 4 -26 10 -35 12 -10 3
-18 9 -18 13 0 4 16 2 35 -4 19 -6 35 -15 35 -20z m13 27 c-7 -2 -19 -2 -25 0
-7 3 -2 5 12 5 14 0 19 -2 13 -5z m-89 -18 c3 -8 1 -15 -4 -15 -6 0 -10 7 -10
15 0 8 2 15 4 15 2 0 6 -7 10 -15z m56 -64 c0 -5 21 -8 48 -5 51 4 134 -16
140 -34 2 -7 -1 -12 -8 -12 -6 0 -9 4 -5 9 3 6 -32 9 -84 9 -64 0 -96 4 -111
15 -16 11 -18 16 -8 20 20 8 28 8 28 -2z m-55 -11 c-3 -5 1 -10 9 -10 9 0 16
-4 16 -9 0 -11 -30 -19 -47 -14 -19 7 -16 31 5 36 9 3 18 5 20 6 2 0 0 -3 -3
-9z m275 -4 c0 -3 -4 -8 -10 -11 -5 -3 -10 -1 -10 4 0 6 5 11 10 11 6 0 10 -2
10 -4z m-545 -61 l20 -16 -20 10 c-11 5 -29 17 -40 26 l-20 16 20 -10 c11 -5
29 -17 40 -26z m360 7 c-3 -3 -11 0 -18 7 -9 10 -8 11 6 5 10 -3 15 -9 12 -12z
m180 -12 c3 -5 1 -10 -4 -10 -6 0 -11 5 -11 10 0 6 2 10 4 10 3 0 8 -4 11 -10z
m50 1 c7 -12 -12 -24 -25 -16 -11 7 -4 25 10 25 5 0 11 -4 15 -9z m1515 -25
c0 -3 -4 -8 -10 -11 -5 -3 -10 -1 -10 4 0 6 5 11 10 11 6 0 10 -2 10 -4z m-40
-46 c0 -5 -7 -7 -15 -4 -8 4 -15 8 -15 10 0 2 7 4 15 4 8 0 15 -4 15 -10z
m-1421 -14 c43 -10 73 -56 36 -56 -9 0 -12 6 -8 17 4 10 2 14 -5 9 -6 -3 -13
-2 -17 4 -11 19 -22 10 -20 -15 2 -14 0 -25 -3 -26 -52 -8 -82 -6 -93 7 -10
12 -4 14 35 14 55 0 61 15 9 25 -47 9 -59 15 -43 25 12 7 67 6 109 -4z m1004
-103 c-7 -2 -19 -2 -25 0 -7 3 -2 5 12 5 14 0 19 -2 13 -5z m-819 -12 c8 -12
-18 -21 -60 -21 -26 0 -32 3 -28 15 7 17 79 21 88 6z m-324 -127 c0 -2 -9 0
-20 6 -11 6 -20 13 -20 16 0 2 9 0 20 -6 11 -6 20 -13 20 -16z m388 19 c-10
-2 -26 -2 -35 0 -10 3 -2 5 17 5 19 0 27 -2 18 -5z m-300 -69 c7 -8 18 -14 24
-14 6 0 9 -3 5 -6 -6 -6 -107 53 -107 62 0 7 63 -27 78 -42z m436 -94 c-7 -7
-19 -7 -35 -1 -23 9 -22 10 11 10 23 1 31 -2 24 -9z"/>
<path d="M2975 7900 c3 -5 8 -10 11 -10 2 0 4 5 4 10 0 6 -5 10 -11 10 -5 0
-7 -4 -4 -10z"/>
<path d="M3001 7864 c0 -11 3 -14 6 -6 3 7 2 16 -1 19 -3 4 -6 -2 -5 -13z"/>
<path d="M4304 7850 c0 -52 1 -74 3 -47 2 26 2 68 0 95 -2 26 -3 4 -3 -48z"/>
<path d="M4343 7855 c0 -44 2 -61 4 -37 2 23 2 59 0 80 -2 20 -4 1 -4 -43z"/>
<path d="M4363 7860 c0 -41 2 -58 4 -37 2 20 2 54 0 75 -2 20 -4 3 -4 -38z"/>
<path d="M4383 7860 c0 -25 2 -35 4 -22 2 12 2 32 0 45 -2 12 -4 2 -4 -23z"/>
<path d="M4318 7613 c6 -2 18 -2 25 0 6 3 1 5 -13 5 -14 0 -19 -2 -12 -5z"/>
<path d="M3258 7153 c6 -2 18 -2 25 0 6 3 1 5 -13 5 -14 0 -19 -2 -12 -5z"/>
<path d="M3185 7141 c-3 -5 -2 -12 3 -15 5 -3 9 1 9 9 0 17 -3 19 -12 6z"/>
<path d="M3255 7130 l-40 -7 35 -1 c19 -1 42 3 50 8 16 11 14 11 -45 0z"/>
<path d="M0 3606 l0 -3606 2820 0 2820 0 0 2625 c0 1444 -3 2625 -7 2625 -5 0
-116 -7 -248 -16 -132 -8 -342 -17 -467 -21 -126 -3 -228 -10 -228 -14 0 -5 5
-9 11 -9 5 0 17 -16 25 -37 28 -66 -4 -141 -73 -169 -71 -30 -163 28 -163 102
0 28 -8 43 -37 71 l-38 35 -240 -11 c-132 -6 -325 -16 -430 -22 -228 -14 -301
-8 -364 28 -78 45 -469 279 -821 493 -184 111 -423 255 -530 320 -242 145
-469 283 -710 430 -102 62 -295 178 -430 258 -135 79 -306 181 -380 225 -74
44 -205 120 -290 170 -85 49 -170 98 -187 109 l-33 20 0 -3606z m2615 1304 c3
-6 -1 -7 -9 -4 -18 7 -21 14 -7 14 6 0 13 -4 16 -10z m1119 -181 c-3 -5 -10
-7 -15 -3 -5 3 -7 10 -3 15 3 5 10 7 15 3 5 -3 7 -10 3 -15z m-1197 -416 c-1
-54 -3 -10 -3 97 0 107 2 151 3 98 2 -54 2 -142 0 -195z m2481 251 c12 -8 22
-22 22 -30 0 -8 6 -13 12 -11 7 1 14 -8 16 -20 2 -17 -3 -26 -22 -33 -14 -5
-26 -16 -26 -25 0 -8 -7 -15 -15 -15 -8 0 -15 4 -15 8 0 5 -7 9 -15 9 -8 0
-15 -9 -15 -19 0 -23 -20 -24 -21 0 0 11 -2 12 -6 4 -4 -10 -8 -10 -19 -1 -11
9 -14 9 -14 -1 0 -7 -7 -10 -15 -6 -8 3 -15 0 -15 -7 0 -8 -3 -8 -8 -2 -4 6
-18 12 -32 13 -14 0 -26 6 -28 12 -2 5 -8 8 -13 4 -5 -3 -9 -1 -9 4 0 14 26
22 66 22 26 0 37 5 44 23 12 29 29 48 60 69 32 21 40 22 68 2z m-530 -23 c52
-56 55 -61 38 -67 -9 -3 -16 -14 -17 -23 0 -10 -2 -11 -6 -3 -7 18 -43 15 -43
-4 0 -11 -6 -14 -22 -8 -20 6 -21 5 -9 -10 18 -21 13 -26 -21 -19 -26 5 -40
23 -18 23 6 0 8 20 4 53 -5 42 -3 57 11 70 24 25 53 21 83 -12z m123 -23 c11
-11 19 -27 19 -35 0 -7 7 -13 15 -13 17 0 18 -2 9 -25 -5 -13 -8 -14 -15 -3
-6 9 -9 5 -9 -13 0 -22 -4 -27 -25 -25 -19 1 -25 7 -26 26 0 23 -1 23 -9 5 -5
-11 -9 -14 -9 -7 -2 23 -20 12 -24 -15 -3 -21 -4 -17 -6 13 -1 36 1 41 22 40
18 -1 22 5 25 37 4 43 8 45 33 15z m-251 -74 c0 -30 -4 -53 -9 -50 -5 3 -12
-2 -15 -11 -4 -9 -2 -19 4 -23 19 -12 -13 -40 -37 -34 -13 4 -23 10 -23 15 0
5 -6 9 -14 9 -18 0 -30 30 -16 44 9 9 15 -4 11 -27 -2 -14 52 -3 57 11 2 7 -2
11 -9 10 -8 -2 -16 11 -20 32 l-6 35 -3 -30 -2 -30 -7 30 c-6 27 -3 32 25 47
18 10 36 22 39 28 14 22 25 -4 25 -56z m-180 -18 c0 -36 -3 -44 -17 -42 -24 2
-33 15 -33 53 0 22 5 33 18 36 27 6 32 -1 32 -47z m-232 29 c-4 -11 -38 -15
-38 -4 0 8 21 18 33 15 5 -1 7 -6 5 -11z m56 9 c9 -3 16 -9 16 -13 0 -12 -44
-5 -48 7 -4 13 8 15 32 6z m1293 -26 c-3 -7 -5 -2 -5 12 0 14 2 19 5 13 2 -7
2 -19 0 -25z m-1228 -10 c-1 -31 -1 -31 -8 -8 -5 14 -6 28 -4 33 9 15 13 6 12
-25z m181 28 c0 -3 -4 -8 -10 -11 -5 -3 -10 -1 -10 4 0 6 5 11 10 11 6 0 10
-2 10 -4z m-200 -50 c0 -29 -33 -30 -38 -1 -3 11 0 15 7 11 6 -4 11 -2 11 3 0
6 5 11 10 11 6 0 10 -11 10 -24z m1180 4 c0 -5 -7 -10 -16 -10 -8 0 -12 5 -9
10 3 6 10 10 16 10 5 0 9 -4 9 -10z m-1225 -19 c3 -5 1 -12 -5 -16 -5 -3 -10
1 -10 9 0 18 6 21 15 7z m173 -43 c3 -13 -3 -18 -22 -18 -20 0 -26 5 -26 21 0
15 5 20 22 17 13 -2 24 -11 26 -20z m-120 0 c-5 -14 -61 -23 -85 -14 -27 11
-2 26 43 26 32 0 44 -4 42 -12z m767 -54 c13 -5 14 -8 3 -15 -11 -7 -11 -9 0
-9 7 0 20 -7 28 -15 13 -12 12 -15 -5 -24 -11 -6 -30 -11 -43 -11 -13 0 -49
-3 -80 -5 -34 -2 -58 0 -58 5 0 6 -9 10 -20 10 -17 0 -20 -7 -20 -47 0 -64 -9
-93 -29 -94 -11 0 -9 -3 7 -9 18 -8 22 -17 22 -55 0 -41 -2 -45 -25 -45 -14 0
-25 5 -25 11 0 7 -20 10 -52 9 -108 -5 -118 -3 -118 26 0 14 4 23 10 19 6 -4
8 -11 5 -16 -4 -5 5 -9 19 -9 17 0 26 6 26 16 0 8 5 12 10 9 6 -4 8 -11 5 -16
-4 -5 16 -9 45 -9 l52 0 -2 113 c-3 162 -4 157 25 157 18 0 25 -5 25 -19 0
-13 7 -18 25 -18 14 0 25 3 25 8 0 24 106 48 145 33z m-687 -77 c6 -7 14 -40
18 -73 8 -74 19 -94 48 -94 13 0 27 -8 30 -17 6 -15 9 -14 19 7 7 13 19 25 27
27 12 4 12 3 2 -5 -11 -7 -8 -11 11 -16 14 -3 32 -3 40 0 8 3 18 1 22 -5 4 -7
-8 -11 -32 -12 l-38 -2 35 -7 35 -7 -28 -11 c-21 -9 -45 -9 -90 -2 -89 14 -89
14 -75 -16 15 -32 -3 -47 -47 -38 -37 8 -34 4 -28 37 3 15 12 27 19 27 9 0 14
12 14 36 0 21 -4 33 -10 29 -6 -4 -8 -9 -6 -13 2 -4 -9 -7 -25 -8 -16 -1 -29
3 -29 7 0 5 5 9 11 9 8 0 7 5 -2 16 -11 13 -9 14 17 9 28 -6 28 -6 9 10 -20
17 -20 17 5 11 14 -3 19 -3 13 0 -7 3 -13 12 -13 20 0 20 -18 17 -24 -4 -3 -9
-14 -22 -24 -29 -17 -10 -19 -8 -16 13 2 20 -5 27 -34 39 -26 12 -37 12 -43 4
-4 -8 -14 -9 -25 -4 -11 5 -32 9 -48 9 -42 1 -42 19 1 48 38 24 49 25 119 3
14 -4 29 2 50 22 28 28 30 28 55 11 14 -9 31 -23 37 -31z m422 26 c0 -20 -3
-24 -11 -16 -7 7 -9 19 -6 27 10 24 17 19 17 -11z m399 -27 c26 -27 72 -118
65 -126 -4 -3 -13 5 -21 18 -9 12 -21 22 -27 22 -6 0 -17 14 -24 30 -8 17 -24
33 -38 36 -23 6 -34 24 -14 24 5 0 7 6 4 14 -8 22 30 9 55 -18z m321 -36 c0
-14 -6 -20 -17 -18 -11 2 -19 -5 -21 -17 -3 -11 -12 -25 -21 -32 -14 -11 -14
-12 6 -13 12 0 25 -4 28 -10 4 -6 -8 -10 -30 -10 -34 0 -35 1 -29 28 13 54 24
73 46 82 34 13 38 12 38 -10z m-3250 -20 c0 -5 -7 -10 -16 -10 -8 0 -12 5 -9
10 3 6 10 10 16 10 5 0 9 -4 9 -10z m218 -141 c2 -75 -1 -99 -12 -108 -28 -23
-36 -2 -36 98 0 101 3 114 30 109 12 -3 16 -22 18 -99z m239 79 c-3 -8 -6 -5
-6 6 -1 11 2 17 5 13 3 -3 4 -12 1 -19z m1823 2 c0 -5 -4 -10 -10 -10 -5 0
-10 5 -10 10 0 6 5 10 10 10 6 0 10 -4 10 -10z m-2290 -4 c0 -3 -4 -8 -10 -11
-5 -3 -10 -1 -10 4 0 6 5 11 10 11 6 0 10 -2 10 -4z m-440 -126 c0 -73 -4
-120 -10 -120 -6 0 -10 47 -10 120 0 73 4 120 10 120 6 0 10 -47 10 -120z m61
13 c2 -150 2 -148 -30 -138 -20 6 -21 14 -21 126 l0 119 25 0 25 0 1 -107z
m699 91 c0 -8 -5 -12 -10 -9 -6 4 -8 11 -5 16 9 14 15 11 15 -7z m2080 -4 c0
-5 -2 -10 -4 -10 -3 0 -8 5 -11 10 -3 6 -1 10 4 10 6 0 11 -4 11 -10z m70 0
c0 -5 -4 -10 -10 -10 -5 0 -10 5 -10 10 0 6 5 10 10 10 6 0 10 -4 10 -10z m60
0 c0 -5 -4 -10 -10 -10 -5 0 -10 5 -10 10 0 6 5 10 10 10 6 0 10 -4 10 -10z
m-2531 -19 c8 -14 7 -22 -4 -31 -13 -11 -15 -8 -15 19 0 36 5 39 19 12z m2328
13 c-3 -3 -12 -4 -19 -1 -8 3 -5 6 6 6 11 1 17 -2 13 -5z m316 -14 c-3 -12 -8
-19 -11 -16 -5 6 5 36 12 36 2 0 2 -9 -1 -20z m-3369 -19 c-4 -44 -6 -47 -14
-21 -12 37 -11 47 3 47 7 0 12 -11 11 -26z m616 19 c-10 -6 -11 -10 -2 -10 6
0 12 -7 12 -15 0 -10 -10 -15 -32 -14 l-33 1 30 8 30 8 -30 1 c-29 2 -29 2
-11 16 11 8 27 15 35 15 14 0 14 -1 1 -10z m471 -53 c0 -29 3 -46 6 -39 7 17
23 5 23 -19 0 -10 7 -19 15 -19 12 0 15 -16 15 -85 0 -54 -4 -85 -11 -85 -6 0
-8 12 -5 33 l6 32 -15 -30 c-8 -16 -14 -38 -15 -48 0 -14 -7 -18 -27 -15 -23
3 -29 10 -40 53 -18 67 -7 276 13 268 8 -3 14 0 14 7 0 6 5 8 10 5 6 -3 10
-30 11 -58z m2525 38 c3 -14 12 -25 20 -25 8 0 14 -4 14 -10 0 -5 -22 -10 -50
-10 -27 0 -50 5 -50 10 0 6 11 10 24 10 20 0 24 4 21 25 -1 14 2 25 6 25 5 0
11 -11 15 -25z m101 19 c43 -12 34 -98 -10 -92 -17 2 -22 10 -22 31 1 15 -3
28 -7 28 -4 1 -12 3 -18 4 -5 1 -13 3 -17 4 -11 2 28 31 41 31 6 0 21 -3 33
-6z m-4377 -14 c9 -6 10 -10 3 -10 -8 0 -11 -20 -11 -62 3 -150 -2 -228 -14
-228 -10 0 -12 36 -10 155 2 85 6 155 10 155 4 0 14 -5 22 -10z m95 1 c3 -5 1
-12 -5 -16 -6 -4 -10 -60 -10 -139 0 -107 -3 -136 -15 -146 -12 -10 -18 -10
-30 0 -12 10 -15 41 -15 161 l0 149 34 0 c19 0 37 -4 41 -9z m435 -22 c0 -6
-4 -7 -10 -4 -5 3 -10 11 -10 16 0 6 5 7 10 4 6 -3 10 -11 10 -16z m900 17 c0
-3 -4 -8 -10 -11 -5 -3 -10 -1 -10 4 0 6 5 11 10 11 6 0 10 -2 10 -4z m3020
-5 c0 -17 62 -21 93 -6 35 17 81 20 72 5 -4 -6 -1 -17 5 -25 9 -11 9 -17 -2
-28 -9 -11 -28 -13 -70 -9 -40 3 -58 1 -58 -7 0 -6 5 -11 10 -11 6 0 10 -7 10
-15 0 -8 5 -15 10 -15 6 0 10 7 10 16 0 8 5 12 11 8 6 -3 9 -15 6 -25 -5 -20
7 -26 18 -9 3 5 12 7 20 4 8 -4 12 -10 9 -15 -3 -5 4 -9 16 -9 12 0 18 5 15
10 -3 6 1 10 9 10 9 0 16 9 16 20 0 11 5 20 10 20 6 0 11 -24 11 -52 1 -29 3
-66 4 -83 1 -16 -2 -34 -6 -40 -4 -5 -10 -36 -14 -67 -7 -55 -6 -58 14 -58 11
0 21 -4 21 -10 0 -5 -16 -10 -35 -10 -21 0 -34 -5 -33 -11 2 -6 -3 -14 -11
-17 -10 -3 -13 1 -8 17 6 25 -9 37 -28 21 -10 -9 -25 -8 -60 4 -53 18 -70 14
-55 -14 11 -21 0 -33 -24 -24 -12 4 -13 11 -6 24 5 9 7 19 5 22 -3 2 -8 91
-11 196 -6 174 -5 192 10 192 9 0 16 -4 16 -9z m-4050 -22 c0 -5 -4 -9 -10 -9
-5 0 -10 7 -10 16 0 8 5 12 10 9 6 -3 10 -10 10 -16z m90 5 c0 -2 -12 -4 -26
-4 -14 0 -23 4 -20 9 6 8 46 4 46 -5z m90 6 c0 -5 -5 -10 -11 -10 -5 0 -7 5
-4 10 3 6 8 10 11 10 2 0 4 -4 4 -10z m-94 -47 c-10 -10 -19 5 -10 18 6 11 8
11 12 0 2 -7 1 -15 -2 -18z m53 -219 c0 -243 0 -247 -22 -264 -12 -9 -37 -19
-56 -22 -32 -5 -35 -2 -54 41 -12 25 -21 48 -22 51 0 3 -8 21 -17 40 -32 69
-32 209 1 211 12 0 11 2 -4 9 -17 7 -17 9 -2 9 9 1 17 8 17 16 0 8 5 15 10 15
6 0 10 12 10 26 0 14 -4 23 -10 19 -5 -3 -10 -2 -10 3 0 6 8 13 18 17 16 7 15
8 -3 15 -14 6 -15 9 -4 9 8 1 21 -5 28 -11 9 -8 11 -8 8 -2 -8 14 20 27 28 14
4 -6 11 -10 16 -10 6 0 7 5 3 12 -5 8 0 9 14 6 18 -5 22 -2 22 18 0 14 6 24
14 24 13 0 15 -39 15 -246z m38 101 c0 -74 -4 -135 -8 -135 -5 0 -9 63 -9 141
0 80 4 138 9 135 5 -3 9 -67 8 -141z m673 134 c0 -5 7 -9 16 -9 8 0 12 5 9 10
-3 6 -1 10 4 10 11 0 15 -66 14 -190 -1 -94 -5 -124 -20 -158 -12 -29 -19 -33
-45 -30 -27 3 -33 9 -45 48 -21 63 -25 220 -6 227 11 4 10 8 -3 18 -21 15 -12
65 11 65 8 0 15 4 15 9 0 5 11 9 25 9 14 0 25 -4 25 -9z m135 -28 c-7 -43 7
-63 24 -34 6 10 11 13 11 8 0 -12 -29 -56 -44 -68 -6 -5 0 -5 13 -2 21 6 23 5
16 -11 -4 -11 -13 -54 -20 -96 -23 -138 -34 -128 -35 34 0 121 3 152 18 177 9
17 19 31 20 31 2 0 1 -18 -3 -39z m-1288 -48 c-2 -16 -4 -5 -4 22 0 28 2 40 4
28 2 -13 2 -35 0 -50z m590 35 c-3 -7 -5 -2 -5 12 0 14 2 19 5 13 2 -7 2 -19
0 -25z m630 -90 c-2 -24 -4 -5 -4 42 0 47 2 66 4 43 2 -24 2 -62 0 -85z m2350
106 c-3 -3 -12 -4 -19 -1 -8 3 -5 6 6 6 11 1 17 -2 13 -5z m-3307 -18 c0 -11
-19 -15 -25 -6 -3 5 1 10 9 10 9 0 16 -2 16 -4z m305 -16 c-3 -5 -1 -10 5 -10
7 0 6 -5 -2 -14 -7 -8 -17 -11 -21 -7 -10 9 2 41 15 41 5 0 6 -4 3 -10z m2995
-5 c0 -8 -7 -15 -15 -15 -9 0 -12 6 -9 15 4 8 10 15 15 15 5 0 9 -7 9 -15z
m-3310 -15 c0 -5 -5 -10 -11 -10 -5 0 -7 5 -4 10 3 6 8 10 11 10 2 0 4 -4 4
-10z m1515 -55 c4 -24 2 -56 -3 -72 l-10 -28 -2 25 c-1 14 -4 49 -6 78 -5 64
12 62 21 -3z m87 18 c-5 -59 -10 -63 -11 -10 -1 26 3 47 7 47 4 0 6 -17 4 -37z
m-1562 8 c0 -13 -24 -31 -41 -31 -28 0 -12 35 17 36 13 1 24 -1 24 -5z m3996
-96 c-2 -33 -5 -61 -5 -62 -1 -2 -5 -3 -10 -3 -6 0 -8 27 -6 60 3 45 1 62 -10
66 -11 5 -10 9 3 23 16 16 17 16 25 -4 5 -11 6 -47 3 -80z m-3734 -27 c-7 -7
-9 11 -7 48 5 83 8 88 12 20 2 -32 0 -63 -5 -68z m-25 55 c-3 -10 -5 -2 -5 17
0 19 2 27 5 18 2 -10 2 -26 0 -35z m2462 9 c-6 -2 -5 -10 2 -18 10 -12 6 -14
-23 -12 -23 2 -34 7 -31 15 3 6 12 9 20 6 11 -4 14 -2 9 5 -11 19 3 34 19 19
7 -6 9 -14 4 -15z m-2749 -27 c0 -19 -4 -35 -9 -35 -9 0 -12 49 -4 63 9 15 13
6 13 -28z m2803 28 c-7 -2 -19 -2 -25 0 -7 3 -2 5 12 5 14 0 19 -2 13 -5z
m842 -5 c2 -7 6 -31 8 -53 2 -32 7 -40 27 -45 24 -6 23 -7 -8 -13 -37 -8 -120
2 -128 14 -3 5 8 6 24 3 17 -4 32 -1 39 8 15 19 25 78 12 78 -6 0 -7 5 -4 10
9 14 25 13 30 -2z m65 -13 c-7 -9 -15 -13 -17 -11 -7 7 7 26 19 26 6 0 6 -6
-2 -15z m181 -1 c26 -11 43 -13 47 -7 4 6 19 12 33 15 26 5 27 3 33 -54 8 -66
0 -91 -20 -64 -9 13 -33 19 -103 23 -55 4 -88 10 -84 16 3 5 43 7 97 4 51 -3
82 -1 71 3 -11 5 -50 9 -87 9 -44 1 -68 5 -68 12 0 9 23 10 80 5 44 -3 80 -3
80 2 0 4 -8 8 -17 9 -45 3 -149 25 -157 34 -16 15 50 10 95 -7z m-2284 -76
c-2 -18 -4 -6 -4 27 0 33 2 48 4 33 2 -15 2 -42 0 -60z m-2404 11 l22 -2 -21
-4 c-29 -5 -37 -49 -17 -91 9 -18 13 -35 9 -39 -3 -3 -13 11 -22 32 -11 26
-18 34 -24 26 -5 -9 -7 -3 -7 14 0 16 3 22 7 15 5 -8 9 -5 13 9 6 23 -8 39
-16 19 -3 -8 -6 -6 -6 5 -1 9 3 17 9 17 5 0 13 12 17 28 l8 27 3 -27 c2 -21 9
-28 25 -29z m3482 30 c5 -5 -9 -9 -37 -9 -26 0 -49 4 -53 9 -12 21 68 21 90 0z
m-628 -11 c-3 -8 -6 -5 -6 6 -1 11 2 17 5 13 3 -3 4 -12 1 -19z m523 12 c0 -5
-7 -10 -16 -10 -8 0 -12 5 -9 10 3 6 10 10 16 10 5 0 9 -4 9 -10z m156 -5 c-4
-12 5 -15 52 -16 41 0 51 -3 37 -9 -27 -12 -107 -12 -125 0 -13 8 -12 10 3 10
10 0 20 7 23 15 4 8 8 15 11 15 3 0 3 -7 -1 -15z m342 8 c-15 -2 -42 -2 -60 0
-18 2 -6 4 27 4 33 0 48 -2 33 -4z m110 0 c-10 -2 -26 -2 -35 0 -10 3 -2 5 17
5 19 0 27 -2 18 -5z m-967 -36 c-10 -9 -11 -8 -5 6 3 10 9 15 12 12 3 -3 0
-11 -7 -18z m46 -9 c-3 -7 -5 -2 -5 12 0 14 2 19 5 13 2 -7 2 -19 0 -25z m910
16 c-3 -3 -12 -4 -19 -1 -8 3 -5 6 6 6 11 1 17 -2 13 -5z m-2877 -16 c0 6 5
12 10 12 6 0 10 -12 10 -26 0 -14 4 -23 10 -19 6 3 10 1 10 -4 0 -6 -4 -11 -9
-11 -5 0 -11 -28 -13 -62 -4 -71 -9 -90 -23 -100 -18 -13 -20 1 -17 113 2 74
7 108 13 99 6 -10 9 -11 9 -2z m686 -4 c-3 -9 -6 -43 -6 -77 0 -44 -3 -58 -10
-47 -7 10 -12 11 -17 4 -14 -19 -43 -25 -43 -8 0 8 4 13 10 9 5 -3 18 0 30 7
16 10 20 23 20 70 0 36 4 58 11 58 6 0 8 -7 5 -16z m2208 -16 c-7 -12 -54 -10
-54 2 0 6 13 9 29 8 16 -1 27 -6 25 -10z m-1774 -7 c0 -13 -9 -17 -52 -25 -24
-4 -38 -3 -38 4 0 5 9 10 19 10 11 0 23 5 26 10 8 13 45 13 45 1z m-2220 -11
c0 -5 -5 -10 -11 -10 -5 0 -7 5 -4 10 3 6 8 10 11 10 2 0 4 -4 4 -10z m1042
-162 c-2 -49 -8 -88 -13 -88 -6 0 -7 5 -4 10 7 12 3 12 -20 4 -13 -5 -14 -8
-3 -15 8 -6 -3 -9 -30 -9 -31 0 -42 4 -40 13 3 6 13 12 24 13 65 3 77 32 67
149 -3 35 -2 72 2 82 12 27 21 -54 17 -159z m3725 166 c-3 -3 -12 -4 -19 -1
-8 3 -5 6 6 6 11 1 17 -2 13 -5z m-4697 -14 c0 -5 -2 -10 -4 -10 -3 0 -8 5
-11 10 -3 6 -1 10 4 10 6 0 11 -4 11 -10z m4603 3 c-7 -2 -21 -2 -30 0 -10 3
-4 5 12 5 17 0 24 -2 18 -5z m-2245 -10 c-10 -2 -26 -2 -35 0 -10 3 -2 5 17 5
19 0 27 -2 18 -5z m-178 -23 c-14 -4 -36 -8 -50 -8 -22 0 -22 1 5 8 17 4 39 8
50 8 16 0 15 -2 -5 -8z m2200 -15 c0 -13 -4 -14 -20 -5 -11 6 -20 13 -20 15 0
3 9 5 20 5 11 0 20 -7 20 -15z m371 -2 c-11 -5 -11 -7 0 -14 9 -6 -2 -9 -31
-8 l-45 0 35 13 c19 8 40 14 45 14 6 0 4 -2 -4 -5z m-4766 -13 c3 -5 1 -10 -4
-10 -6 0 -11 5 -11 10 0 6 2 10 4 10 3 0 8 -4 11 -10z m2240 0 c-3 -5 -10 -10
-16 -10 -5 0 -9 5 -9 10 0 6 7 10 16 10 8 0 12 -4 9 -10z m2705 -10 c0 -5 -7
-10 -16 -10 -8 0 -12 5 -9 10 3 6 10 10 16 10 5 0 9 -4 9 -10z m150 0 c0 -5
-4 -10 -9 -10 -6 0 -13 5 -16 10 -3 6 1 10 9 10 9 0 16 -4 16 -10z m-5170 -24
c0 -8 5 -16 12 -18 6 -2 9 -8 7 -13 -2 -6 -16 2 -31 18 -24 24 -25 27 -7 27
10 0 19 -6 19 -14z m1720 5 c0 -9 -33 -21 -57 -21 -19 0 -15 18 5 23 30 8 52
7 52 -2z m3367 -18 c2 -6 -1 -14 -6 -18 -6 -3 -11 -1 -11 4 0 6 -6 11 -14 11
-8 0 -17 4 -20 8 -2 4 7 8 21 7 15 0 28 -5 30 -12z m-5097 -32 c0 -12 -2 -13
-8 -3 -5 8 -16 10 -28 5 -17 -6 -17 -5 -6 10 16 19 42 12 42 -12z m1756 12
c-2 -13 -13 -19 -37 -20 -27 -2 -30 -1 -14 7 l20 9 -20 2 c-12 1 -6 5 15 9 19
4 36 8 37 9 1 0 0 -7 -1 -16z m1447 10 c-7 -2 -19 -2 -25 0 -7 3 -2 5 12 5 14
0 19 -2 13 -5z m-48 -43 c33 -12 -46 -23 -125 -18 -69 5 -94 13 -85 27 5 10
180 2 210 -9z m-3190 -30 c-5 -28 9 -25 21 5 8 22 11 23 28 10 10 -8 15 -19
11 -25 -6 -9 -10 -9 -16 1 -6 9 -8 -4 -5 -33 3 -41 1 -46 -16 -45 -10 1 -16 7
-14 14 3 7 -3 18 -12 25 -15 12 -18 25 -12 53 1 6 2 14 1 18 -1 5 3 6 8 3 5
-4 8 -15 6 -26z m2394 -52 c-12 -23 -11 -23 -40 8 l-24 26 28 -7 c19 -5 27 -3
27 6 0 11 2 11 9 0 6 -9 6 -22 0 -33z m1650 26 c10 -9 -56 -3 -69 7 -11 7 -4
8 25 3 22 -4 42 -8 44 -10z m-1930 -39 l0 -20 -9 20 c-5 11 -9 27 -9 35 -1 13
0 13 9 0 5 -8 9 -24 9 -35z m671 30 c0 -8 -4 -15 -9 -15 -5 0 -11 7 -15 15 -3
9 0 15 9 15 8 0 15 -7 15 -15z m-1810 -19 c0 -18 -42 -28 -72 -17 -21 8 -19
10 22 19 25 5 46 10 48 11 1 1 2 -5 2 -13z m567 -8 c-3 -8 -6 -5 -6 6 -1 11 2
17 5 13 3 -3 4 -12 1 -19z m100 0 c-3 -8 -6 -5 -6 6 -1 11 2 17 5 13 3 -3 4
-12 1 -19z m-1672 -8 c3 -5 1 -10 -4 -10 -6 0 -11 5 -11 10 0 6 2 10 4 10 3 0
8 -4 11 -10z m1135 -10 c0 -5 -4 -10 -10 -10 -5 0 -10 5 -10 10 0 6 5 10 10
10 6 0 10 -4 10 -10z m-53 -6 c-3 -3 -12 -4 -19 -1 -8 3 -5 6 6 6 11 1 17 -2
13 -5z m500 -51 c-3 -10 -5 -2 -5 17 0 19 2 27 5 18 2 -10 2 -26 0 -35z m506
33 c4 -10 1 -13 -8 -9 -8 3 -12 9 -9 14 7 12 11 11 17 -5z m-2020 -15 c-3 -11
-14 -28 -25 -37 -16 -16 -21 -16 -28 -4 -6 8 -10 11 -10 5 0 -14 -20 17 -20
33 0 6 4 12 10 12 5 0 7 -7 4 -15 -4 -8 -1 -15 5 -15 7 0 14 7 17 15 5 12 10
13 20 4 11 -9 14 -8 14 5 0 9 4 16 9 16 5 0 7 -9 4 -19z m941 13 c24 -9 19
-24 -6 -24 -17 0 -20 3 -9 9 11 7 10 10 -5 14 -10 2 -14 5 -7 6 6 0 18 -2 27
-5z m86 -4 c0 -5 -12 -10 -27 -9 -25 0 -26 1 -8 9 27 12 35 12 35 0z m1343
-13 c72 -31 -6 -44 -200 -33 -61 3 -105 1 -108 -4 -3 -6 -13 -10 -22 -10 -15
0 -10 15 5 15 4 0 13 4 21 9 15 9 25 12 104 22 26 4 50 11 53 16 8 12 108 2
147 -15z m569 -40 c-20 -21 -31 -24 -115 -24 -90 -1 -130 7 -113 24 9 9 96 19
185 22 l64 1 -21 -23z m56 -22 c2 -15 1 -17 -6 -6 -6 8 -17 11 -26 8 -16 -6
-22 4 -9 17 13 12 38 1 41 -19z m-1018 -5 c0 -5 -4 -10 -10 -10 -5 0 -10 5
-10 10 0 6 5 10 10 10 6 0 10 -4 10 -10z m367 -12 c-3 -8 -6 -5 -6 6 -1 11 2
17 5 13 3 -3 4 -12 1 -19z m693 12 c-8 -5 -19 -10 -25 -10 -5 0 -3 5 5 10 8 5
20 10 25 10 6 0 3 -5 -5 -10z m-977 -7 c-7 -2 -19 -2 -25 0 -7 3 -2 5 12 5 14
0 19 -2 13 -5z m151 1 c22 -8 20 -24 -3 -24 -10 0 -21 7 -25 15 -6 16 3 19 28
9z m-183 -43 c6 10 9 6 9 -13 0 -34 -2 -34 -37 -2 -25 24 -26 26 -4 14 19 -10
25 -10 32 1z m-469 -20 l36 -6 -24 -28 c-21 -24 -30 -23 -25 6 0 4 -5 7 -12 7
-8 0 -22 10 -33 22 -19 21 -19 21 1 13 11 -4 37 -11 57 -14z m1295 -37 c-3 -3
-12 -4 -19 -1 -8 3 -5 6 6 6 11 1 17 -2 13 -5z m2156 -11 c-7 -2 -19 -2 -25 0
-7 3 -2 5 12 5 14 0 19 -2 13 -5z m-3443 -33 c38 -10 68 -46 52 -62 -5 -5 -41
-14 -79 -20 -58 -8 -81 -7 -126 6 -75 22 -107 20 -179 -9 -34 -14 -63 -23 -66
-21 -7 8 144 74 207 90 36 9 67 19 70 21 8 9 85 5 121 -5z m620 -10 c0 -19
-11 -26 -23 -14 -8 8 3 34 14 34 5 0 9 -9 9 -20z m-80 -12 c0 -4 -15 -8 -32
-8 -20 0 -28 3 -21 8 16 10 53 10 53 0z m-1459 -25 c-12 -20 -14 -14 -5 12 4
9 9 14 11 11 3 -2 0 -13 -6 -23z m1697 -18 c16 -16 -78 -68 -105 -59 -14 4
-15 4 -4 -4 20 -15 -7 -21 -44 -10 -38 10 -125 11 -125 0 0 -12 -59 -2 -67 11
-7 12 26 39 38 31 5 -3 9 -1 9 4 0 5 25 10 56 11 31 1 61 4 67 8 27 16 161 23
175 8z m-973 -15 c19 -8 19 -9 -2 -9 -12 -1 -25 4 -28 9 -7 12 2 12 30 0z
m995 -34 c0 -17 -61 -40 -87 -33 -15 4 -14 5 3 6 11 0 29 10 39 21 21 23 45
26 45 6z m110 -11 c0 -5 -89 -45 -99 -45 -8 1 81 49 92 50 4 0 7 -2 7 -5z
m-1072 -25 c15 -1 14 -3 -2 -15 -23 -18 -40 -6 -29 20 4 11 8 14 11 7 2 -7 11
-12 20 -12z m-767 -177 c13 -17 13 -17 -6 -3 -11 8 -22 16 -24 17 -2 2 0 3 6
3 6 0 17 -8 24 -17z m-391 -75 c0 -12 -6 -9 -26 13 -19 22 -19 22 4 8 12 -8
22 -17 22 -21z m100 18 c0 -2 -7 -7 -16 -10 -8 -3 -12 -2 -9 4 6 10 25 14 25
6z m849 -197 c-24 -15 -45 -11 -24 5 11 8 24 12 28 9 5 -3 3 -9 -4 -14z m-579
-19 c0 -5 -4 -10 -10 -10 -5 0 -10 5 -10 10 0 6 5 10 10 10 6 0 10 -4 10 -10z
m536 -2 c4 -7 3 -10 -1 -5 -5 4 -15 1 -24 -6 -18 -15 -51 -29 -51 -22 0 4 61
45 67 45 1 0 5 -6 9 -12z m-89 -44 c-3 -3 -12 -4 -19 -1 -8 3 -5 6 6 6 11 1
17 -2 13 -5z m-657 -14 c0 -5 -7 -10 -16 -10 -8 0 -12 5 -9 10 3 6 10 10 16
10 5 0 9 -4 9 -10z m-43 -6 c-3 -3 -12 -4 -19 -1 -8 3 -5 6 6 6 11 1 17 -2 13
-5z m773 -128 c0 -3 -4 -8 -10 -11 -5 -3 -10 -1 -10 4 0 6 5 11 10 11 6 0 10
-2 10 -4z"/>
<path d="M4175 4030 c-3 -5 1 -10 10 -10 9 0 13 5 10 10 -3 6 -8 10 -10 10 -2
0 -7 -4 -10 -10z"/>
<path d="M672 3780 c0 -14 2 -19 5 -12 2 6 2 18 0 25 -3 6 -5 1 -5 -13z"/>
<path d="M5175 3793 c8 -34 9 -35 27 -28 10 4 14 14 10 28 -5 20 -6 20 -13 1
-7 -18 -8 -17 -8 4 -1 12 -6 22 -12 22 -7 0 -9 -10 -4 -27z"/>
<path d="M5160 3730 c0 -5 5 -10 10 -10 6 0 10 5 10 10 0 6 -4 10 -10 10 -5 0
-10 -4 -10 -10z"/>
<path d="M5137 3703 c-13 -12 -7 -32 8 -27 8 4 17 -1 21 -10 8 -22 24 -20 24
2 0 31 -35 54 -53 35z"/>
<path d="M1120 3929 c0 -5 5 -7 10 -4 6 3 10 8 10 11 0 2 -4 4 -10 4 -5 0 -10
-5 -10 -11z"/>
<path d="M1030 3839 c0 -5 5 -7 10 -4 6 3 10 8 10 11 0 2 -4 4 -10 4 -5 0 -10
-5 -10 -11z"/>
<path d="M1263 3660 c0 -30 2 -43 4 -27 2 15 2 39 0 55 -2 15 -4 2 -4 -28z"/>
</g>
</svg>
